<svg width="50" height="50" viewBox="0 0 50 50" fill="none" xmlns="http://www.w3.org/2000/svg">
<path d="M33.871 3.2258C28.9799 3.2258 25 7.20569 25 12.0968H26.6129C26.6129 8.09444 29.8686 4.8387 33.871 4.8387V3.2258Z" fill="#363D4F"/>
<path d="M41.1292 12.0968C41.1292 16.0991 37.8734 19.3548 33.8711 19.3548V20.9677C38.7622 20.9677 42.7421 16.9879 42.7421 12.0968H41.1292Z" fill="#363D4F"/>
<path d="M45.9677 12.0968C45.9677 5.42662 40.5411 0 33.8709 0C29.2386 0 25.2122 2.61939 23.1799 6.45161H4.83868C4.39253 6.45161 4.03223 6.81192 4.03223 7.25806V49.1936C4.03223 49.6397 4.39253 50 4.83868 50H40.3226C40.7687 50 41.129 49.6397 41.129 49.1936V21.7517C44.0603 19.5419 45.9677 16.0428 45.9677 12.0968ZM24.216 19.3548H8.87094V11.2903H21.8151C21.7974 11.5581 21.7742 11.8243 21.7742 12.0968C21.7742 14.8217 22.6905 17.3308 24.216 19.3548ZM39.5161 48.3871H5.64513V8.06452H22.4798C22.2936 8.58863 22.1305 9.12338 22.0175 9.67742H8.06449C7.61834 9.67742 7.25803 10.0377 7.25803 10.4839V20.1613C7.25803 20.6074 7.61834 20.9677 8.06449 20.9677H25.6741C27.8324 22.963 30.7066 24.1935 33.8709 24.1935C35.9095 24.1935 37.8292 23.6824 39.5161 22.7878V48.3871ZM33.8709 22.5806C28.0903 22.5806 23.3871 17.8774 23.3871 12.0968C23.3871 6.31615 28.0903 1.6129 33.8709 1.6129C39.6516 1.6129 44.3548 6.31615 44.3548 12.0968C44.3548 17.8774 39.6516 22.5806 33.8709 22.5806Z" fill="#363D4F"/>
<path d="M34.6773 16.129C36.011 16.129 37.0966 15.0434 37.0966 13.7097C37.0966 12.376 36.011 11.2903 34.6773 11.2903H33.0644C32.6194 11.2903 32.2579 10.9288 32.2579 10.4839C32.2579 10.0389 32.6194 9.67742 33.0644 9.67742H37.0966V8.06452H34.6773V6.45161H33.0644V8.06452C31.7307 8.06452 30.645 9.15016 30.645 10.4839C30.645 11.8176 31.7307 12.9032 33.0644 12.9032H34.6773C35.1222 12.9032 35.4837 13.2647 35.4837 13.7097C35.4837 14.1546 35.1222 14.5161 34.6773 14.5161H30.645V16.129H33.0644V17.7419H34.6773V16.129Z" fill="#363D4F"/>
<path d="M12.9035 24.1935H8.06475C7.61861 24.1935 7.2583 24.5538 7.2583 25V29.8387C7.2583 30.2849 7.61861 30.6452 8.06475 30.6452H12.9035C13.3496 30.6452 13.7099 30.2849 13.7099 29.8387V25C13.7099 24.5538 13.3496 24.1935 12.9035 24.1935ZM12.097 29.0323H8.8712V25.8064H12.097V29.0323Z" fill="#363D4F"/>
<path d="M20.9679 24.1935H16.1292C15.6831 24.1935 15.3228 24.5538 15.3228 25V29.8387C15.3228 30.2849 15.6831 30.6452 16.1292 30.6452H20.9679C21.4141 30.6452 21.7744 30.2849 21.7744 29.8387V25C21.7744 24.5538 21.4141 24.1935 20.9679 24.1935ZM20.1615 29.0323H16.9357V25.8064H20.1615V29.0323Z" fill="#363D4F"/>
<path d="M29.0324 24.1935H24.1937C23.7475 24.1935 23.3872 24.5538 23.3872 25V29.8387C23.3872 30.2849 23.7475 30.6452 24.1937 30.6452H29.0324C29.4785 30.6452 29.8388 30.2849 29.8388 29.8387V25C29.8388 24.5538 29.4785 24.1935 29.0324 24.1935ZM28.2259 29.0323H25.0001V25.8064H28.2259V29.0323Z" fill="#363D4F"/>
<path d="M12.9035 32.2581H8.06475C7.61861 32.2581 7.2583 32.6184 7.2583 33.0645V37.9032C7.2583 38.3494 7.61861 38.7097 8.06475 38.7097H12.9035C13.3496 38.7097 13.7099 38.3494 13.7099 37.9032V33.0645C13.7099 32.6184 13.3496 32.2581 12.9035 32.2581ZM12.097 37.0968H8.8712V33.871H12.097V37.0968Z" fill="#363D4F"/>
<path d="M20.9679 32.2581H16.1292C15.6831 32.2581 15.3228 32.6184 15.3228 33.0645V37.9032C15.3228 38.3494 15.6831 38.7097 16.1292 38.7097H20.9679C21.4141 38.7097 21.7744 38.3494 21.7744 37.9032V33.0645C21.7744 32.6184 21.4141 32.2581 20.9679 32.2581ZM20.1615 37.0968H16.9357V33.871H20.1615V37.0968Z" fill="#363D4F"/>
<path d="M29.0324 32.2581H24.1937C23.7475 32.2581 23.3872 32.6184 23.3872 33.0645V37.9032C23.3872 38.3494 23.7475 38.7097 24.1937 38.7097H29.0324C29.4785 38.7097 29.8388 38.3494 29.8388 37.9032V33.0645C29.8388 32.6184 29.4785 32.2581 29.0324 32.2581ZM28.2259 37.0968H25.0001V33.871H28.2259V37.0968Z" fill="#363D4F"/>
<path d="M31.4517 33.0645V45.9677C31.4517 46.4139 31.812 46.7742 32.2581 46.7742H37.0968C37.543 46.7742 37.9033 46.4139 37.9033 45.9677V33.0645C37.9033 32.6184 37.543 32.2581 37.0968 32.2581H32.2581C31.812 32.2581 31.4517 32.6184 31.4517 33.0645ZM33.0646 33.871H36.2904V45.1613H33.0646V33.871Z" fill="#363D4F"/>
<path d="M12.9035 40.3226H8.06475C7.61861 40.3226 7.2583 40.6829 7.2583 41.129V45.9677C7.2583 46.4139 7.61861 46.7742 8.06475 46.7742H12.9035C13.3496 46.7742 13.7099 46.4139 13.7099 45.9677V41.129C13.7099 40.6829 13.3496 40.3226 12.9035 40.3226ZM12.097 45.1613H8.8712V41.9355H12.097V45.1613Z" fill="#363D4F"/>
<path d="M20.9679 40.3226H16.1292C15.6831 40.3226 15.3228 40.6829 15.3228 41.129V45.9677C15.3228 46.4139 15.6831 46.7742 16.1292 46.7742H20.9679C21.4141 46.7742 21.7744 46.4139 21.7744 45.9677V41.129C21.7744 40.6829 21.4141 40.3226 20.9679 40.3226ZM20.1615 45.1613H16.9357V41.9355H20.1615V45.1613Z" fill="#363D4F"/>
<path d="M29.0324 40.3226H24.1937C23.7475 40.3226 23.3872 40.6829 23.3872 41.129V45.9677C23.3872 46.4139 23.7475 46.7742 24.1937 46.7742H29.0324C29.4785 46.7742 29.8388 46.4139 29.8388 45.9677V41.129C29.8388 40.6829 29.4785 40.3226 29.0324 40.3226ZM28.2259 45.1613H25.0001V41.9355H28.2259V45.1613Z" fill="#363D4F"/>
</svg>
